<?xml version="1.0" encoding="UTF-8"?>
<svg id="_圖層_2" data-name="圖層 2" xmlns="http://www.w3.org/2000/svg" viewBox="0 0 448 359">
  <defs>
    <style>
      .cls-1 {
        fill: #cfe1d4;
      }

      .cls-2 {
        fill: #c97f5a;
      }

      .cls-3 {
        fill: #cfe6d7;
      }

      .cls-4 {
        fill: #fff;
      }

      .cls-5 {
        fill: #bbbdd4;
      }

      .cls-6 {
        fill: #826a8b;
      }

      .cls-7 {
        fill: #37895a;
      }

      .cls-8 {
        fill: #fafbfa;
      }

      .cls-9 {
        fill: #edafa3;
      }

      .cls-10 {
        fill: #9b98a4;
      }

      .cls-11 {
        fill: #eff5f2;
      }

      .cls-12 {
        fill: #8086b1;
      }

      .cls-13 {
        fill: #2f8a58;
      }

      .cls-14 {
        fill: #9ca0cc;
      }

      .cls-15 {
        fill: #348d58;
      }

      .cls-16 {
        fill: #629f70;
      }

      .cls-17 {
        fill: #717aac;
      }

      .cls-18 {
        fill: #363d6f;
      }

      .cls-19 {
        fill: #349151;
      }

      .cls-20 {
        fill: #44936a;
      }

      .cls-21 {
        fill: #62a178;
      }

      .cls-22 {
        fill: #428062;
      }

      .cls-23 {
        fill: #b9bad9;
      }

      .cls-24 {
        fill: #db9063;
      }

      .cls-25 {
        fill: #258d4c;
      }

      .cls-26 {
        fill: #cacee3;
      }

      .cls-27 {
        fill: #8eb0a0;
      }

      .cls-28 {
        fill: #388a59;
      }

      .cls-29 {
        fill: #343970;
      }

      .cls-30 {
        fill: #bd6360;
      }

      .cls-31 {
        fill: #3e3d66;
      }

      .cls-32 {
        fill: #472f51;
      }

      .cls-33 {
        fill: #fbede4;
      }

      .cls-34 {
        fill: #368f54;
      }

      .cls-35 {
        fill: #c98c67;
      }

      .cls-36 {
        fill: #603033;
      }

      .cls-37 {
        fill: #757ca7;
      }

      .cls-38 {
        fill: #509871;
      }

      .cls-39 {
        fill: #dfede4;
      }

      .cls-40 {
        fill: #67ad88;
      }

      .cls-41 {
        fill: #f9e8e0;
      }

      .cls-42 {
        fill: #c24b45;
      }

      .cls-43 {
        fill: #edf2ef;
      }

      .cls-44 {
        fill: #353a71;
      }

      .cls-45 {
        fill: #50996f;
      }

      .cls-46 {
        fill: #448b63;
      }

      .cls-47 {
        fill: #cde6d0;
      }

      .cls-48 {
        fill: #a1a9c9;
      }

      .cls-49 {
        fill: #ecf2ed;
      }

      .cls-50 {
        fill: #555074;
      }

      .cls-51 {
        fill: #67a37f;
      }

      .cls-52 {
        fill: #49955f;
      }

      .cls-53 {
        fill: #40486c;
      }

      .cls-54 {
        fill: #c74e49;
      }

      .cls-55 {
        fill: #378f5c;
      }

      .cls-56 {
        fill: #9f9dbd;
      }

      .cls-57 {
        fill: #9d9db5;
      }

      .cls-58 {
        fill: #7377b0;
      }

      .cls-59 {
        fill: #545e95;
      }

      .cls-60 {
        fill: #ccccdb;
      }

      .cls-61 {
        fill: #ca342a;
      }

      .cls-62 {
        fill: #4c9361;
      }

      .cls-63 {
        fill: #368c55;
      }

      .cls-64 {
        fill: #6f6c81;
      }

      .cls-65 {
        fill: #589373;
      }

      .cls-66 {
        fill: #e0eee7;
      }

      .cls-67 {
        fill: #329058;
      }

      .cls-68 {
        fill: #fffffe;
      }

      .cls-69 {
        fill: #2e8959;
      }

      .cls-70 {
        fill: #fdfdfd;
      }

      .cls-71 {
        fill: #358e58;
      }

      .cls-72 {
        fill: #843c58;
      }

      .cls-73 {
        fill: #464c76;
      }

      .cls-74 {
        fill: #9ba1c7;
      }

      .cls-75 {
        fill: #6e6fa4;
      }

      .cls-76 {
        fill: #303874;
      }

      .cls-77 {
        fill: #3f915d;
      }

      .cls-78 {
        fill: #353b6c;
      }

      .cls-79 {
        fill: #e0eee5;
      }

      .cls-80 {
        fill: #2e8d4f;
      }

      .cls-81 {
        fill: #656da5;
      }

      .cls-82 {
        fill: #403f70;
      }

      .cls-83 {
        fill: #8d90a3;
      }

      .cls-84 {
        fill: #428d65;
      }

      .cls-85 {
        fill: #494d74;
      }

      .cls-86 {
        fill: #569966;
      }

      .cls-87 {
        fill: none;
      }

      .cls-88 {
        fill: #c56263;
      }

      .cls-89 {
        fill: #cfd4e8;
      }

      .cls-90 {
        fill: #9398c0;
      }

      .cls-91 {
        fill: #e4a29a;
      }

      .cls-92 {
        fill: #32825d;
      }

      .cls-93 {
        fill: #479665;
      }

      .cls-94 {
        fill: #917786;
      }

      .cls-95 {
        fill: #338a55;
      }

      .cls-96 {
        fill: #72aa85;
      }

      .cls-97 {
        fill: #5d9675;
      }

      .cls-98 {
        fill: #258b4c;
      }

      .cls-99 {
        fill: #2d7e54;
      }

      .cls-100 {
        fill: #449564;
      }

      .cls-101 {
        fill: #2e8956;
      }

      .cls-102 {
        fill: #eaf4ec;
      }

      .cls-103 {
        fill: #de702d;
      }

      .cls-104 {
        fill: #26874f;
      }

      .cls-105 {
        fill: #9a9dc3;
      }

      .cls-106 {
        fill: #363a70;
      }

      .cls-107 {
        fill: #3f8d5b;
      }

      .cls-108 {
        fill: #88ae9a;
      }

      .cls-109 {
        fill: #c5a5a4;
      }

      .cls-110 {
        fill: #b63f3f;
      }

      .cls-111 {
        fill: #de584e;
      }

      .cls-112 {
        fill: #979cca;
      }

      .cls-113 {
        fill: #72af8f;
      }

      .cls-114 {
        fill: #666889;
      }

      .cls-115 {
        fill: #308d5b;
      }

      .cls-116 {
        fill: #388f57;
      }

      .cls-117 {
        fill: #2e3876;
      }

      .cls-118 {
        fill: #c9c6df;
      }

      .cls-119 {
        fill: #278a53;
      }

      .cls-120 {
        fill: #cccede;
      }

      .cls-121 {
        fill: #43935f;
      }

      .cls-122 {
        fill: #fefefd;
      }

      .cls-123 {
        fill: #eaf0f5;
      }

      .cls-124 {
        fill: #444773;
      }

      .cls-125 {
        fill: #49936c;
      }

      .cls-126 {
        fill: #2c8c52;
      }

      .cls-127 {
        fill: #3a8d54;
      }

      .cls-128 {
        fill: #88415e;
      }

      .cls-129 {
        fill: #515668;
      }

      .cls-130 {
        fill: #6c9a82;
      }

      .cls-131 {
        fill: #518f6e;
      }

      .cls-132 {
        fill: #f5f8f7;
      }

      .cls-133 {
        fill: #2e8652;
      }

      .cls-134 {
        fill: #298d4f;
      }

      .cls-135 {
        fill: #69a788;
      }

      .cls-136 {
        fill: #ca7069;
      }

      .cls-137 {
        fill: #4f4d6d;
      }

      .cls-138 {
        fill: #343b6d;
      }

      .cls-139 {
        fill: #726c8a;
      }

      .cls-140 {
        fill: #439364;
      }

      .cls-141 {
        fill: #acb0d6;
      }
    </style>
  </defs>
  <g id="_圖層_1-2" data-name="圖層 1">
    <g>
      <g>
        <path class="cls-4" d="M.13,280.17C.13,188.14,.15,96.11,.03,4.08,.03,.67,.7,0,4.12,0,150.72,.11,297.32,.11,443.92,0c3.41,0,4.09,.67,4.08,4.08-.11,116.95-.11,233.89,0,350.84,0,3.41-.67,4.09-4.08,4.08-83.77-.12-167.54-.1-251.31-.1-.36-.44-.39-.9-.12-1.39,1.25-1.68,3.11-1.69,4.93-1.83,30.23-2.31,58.06-11.67,83.5-28.19,10.48-6.81,20.28-14.51,29.32-23.04,6.11-5.76,12.2-11.75,16.93-18.82,.92-1.37,3.45-2.87,.94-4.99-2.18-1.85-4.3-2.17-6.44,.26-6.17,7-13.49,12.75-20.57,18.76-13.29,11.28-28.28,19.78-44.21,26.58-8.94,3.82-18.69,4.38-28.31,4.99-4.14,.26-8.3,0-12.45,.12-11.44-.89-22.65-2.63-32.55-9.03-.39-2.58-2.25-4.53-3.04-6.95,.48-.74,1.2-.9,2.02-.86,8.79,3.29,17.27,7.46,26.82,8.48,11.92,1.27,23.69,.74,35.37-1.89,4.36-.48,8.47-1.91,10.85-2.63-3.17,1.53-8.58,1.89-13.67,3.44-11.7,1.62-23.43,2.44-35.16,.51-12.93-2.13-24.31-7.61-34.16-16.24-1.13-.99-2.17-2.08-2.23-3.73,1.82-2.18,4.43-2.97,6.99-3.37,34.73-5.44,68.24-15.54,101.52-26.49,31.3-10.29,61.48-23.22,89.93-39.92,9.15-5.37,17.86-11.48,25.92-18.46,5.98-5.18,10.63-11.38,14.31-18.32,4.07-7.67,.39-17.37-8.39-22.28-10.48-5.86-21.95-8.34-33.73-9.73-1.48-.18-2.99-.15-4.45-.51-7.51-1.06-15.09-1.19-22.61-2.01-2.74-1.95-1.27-4.55-.85-6.83,1.48-7.98,1.27-15.84-.98-23.64-4.79-16.62-16.66-25.76-32.48-30.72-19.65-6.16-39.41-4.53-59.06-.26-35.19,7.65-65.91,23.85-92.35,48.42-22.67,21.07-41.31,44.86-52.75,73.86-.55,1.39-1.06,2.83-2.65,3.41-1.73-.27-1.84-1.66-2.06-2.98,.61-6.54,3.62-12.27,6.17-18.16,21.08-40.45,51.9-71.26,92.08-92.79,8.2-4.4,16.62-8.27,25.51-11.09,4.19-.09,7.12-2.96,10.52-4.8,9.77-2.78,19.66-5.03,29.81-5.76,1.58-.11,2.3-.93,3.31-1.65,8.74,.99,17.52,.02,26.26,.56,5.12,1.67,10.67,1.13,15.74,3.11,1.05,.41,2.35,.19,2.87,.89-5.31-1.95-11.13-3.1-17.14-3.38-4.15-1.59-8.46-.56-12.69-.73-5.09-.2-10.19,.09-15.28-.34-2.42,2.78-5.93,1.46-8.82,1.95-12.41,2.08-24.58,4.9-36.44,9.1-15.72,5.6-30.64,12.81-44.42,22.27-29.47,20.25-53.4,45.65-71.18,76.74-2.95,5.47-5.36,11.24-9,16.33-1.9,.83-4.02,1.08-5.81,2.18-1.49,.68-2.95,1.43-4.43,2.12-18.23,8.39-36.31,17.12-52.77,28.69-9.33,6.56-18.71,13.26-24.78,23.37-1.11,1.85-2.27,3.64-3.04,5.68-.53,1.43-.67,3.43-3.04,3.23Z"/>
        <path class="cls-103" d="M363.35,162.53c13.3,.97,26.27,3.31,38.05,9.99,9.18,5.21,14.57,15.69,7.11,27.13-7.04,10.81-16.28,18.54-26.44,25.9-11.43,8.28-23.74,14.92-36.33,21.12-22.08,10.87-44.81,20.15-68.24,27.76-24.24,7.87-48.61,15.24-73.49,20.82-10.95,2.46-21.98,4.58-32.97,6.86-.73,.66-1.56,1.08-2.55,1.14-.66,.07-1.32,.08-1.97,.09-1.05,0-1.91,.5-2.78,1.01-.85,.12-1.82-.45-2.55,.44-.82,.32-1.68,.41-2.55,.45-1.61,.04-3.24,0-4.74,.76-.46,.23-.93,.42-1.41,.6-7.21,1.44-14.45,2.69-21.82,2.9-4.64,.25-9.35-.87-13.91,.78-.49,.32-1.01,.55-1.55,.73-3.74,.9-7.54,.38-11.31,.46-6.3,.29-12.73-1.02-18.85,1.52-5.26,.94-10.65,.99-15.84,.37-14.75-1.77-29.8-1.47-44.18-5.94-6.97-2.17-13.79-4.66-19.21-9.84-.99-2.34-1.29-5.09-3.75-6.61-.95-.73-1.15-1.97-1.93-2.82v-7.97c8.87-20.76,27.08-31.77,45.16-42.72,12.24-7.41,25-13.95,38.35-19.22,3.91-.11,4.61,.74,3.04,3.78-.53,1.03-1.39,1.81-2.18,2.63-8.83,5.87-18.61,10.17-27.24,16.37-5.25,3.78-10.41,7.68-14.44,12.83-5.48,7.02-3.96,13.42,4.13,17.32,8.34,4.02,17.26,5.51,26.43,5.69,4.14,.08,8.29,.09,12.44-.12,6.38-.07,12.76-.1,19.13-.02,2.84,.04,5.49-.72,8.17-1.4,8.68-.47,17.34-1.26,25.95-2.47,2.38,0,4.69-.57,7.02-.95,1.04-.08,2.02-.39,3.03-.64,1.78-.4,3.6-.35,5.41-.41,20.56-3.78,40.96-8.21,61.24-13.3,27.6-6.92,54.55-15.7,80.82-26.57,16.28-6.73,32.3-14.04,46.74-24.3,5.66-4.02,11.31-8.18,14.97-14.36,3.34-5.65,2-11.1-3.8-14.3-4.53-2.5-9.29-4.45-14.59-4.63-2.01-.07-4.02-.22-5.3-2.16-.94-3.18-.04-5.78,2.49-7.87,2.96-2.63,6.59-1.8,9.99-1.76,5.43,.06,10.87,.25,16.27,.92Z"/>
        <path class="cls-4" d="M.13,288.14c1.39-.13,1.32,1.2,1.9,1.88,1.68,1.84,2.84,4.03,4.12,6.15,5.51,5.51,12.66,7.78,19.84,9.96,11.17,3.39,22.75,3.78,34.26,4.91,8.42,.82,16.8,.74,25.21,.54,3.58,.29,7.31-2.94,10.77,.43,4.42,6.9,9.29,13.45,15.09,19.27,1.59,1.74,3.28,3.34,5.48,4.31,16.08,12.53,34.62,18.35,54.66,20.15,1.83,.16,3.61,.55,5.09,1.75,.41,.44,.44,.91,.11,1.41-57.39,0-114.79-.03-172.18,.07-3.3,0-4.51-.3-4.46-4.2,.26-22.21,.13-44.43,.13-66.64Z"/>
        <path class="cls-60" d="M176.65,358.9c0-.29,0-.59-.03-.88,5.33-2.61,10.66-2.51,16.01-.06,0,.31,0,.63-.02,.94h-15.96Z"/>
        <path class="cls-117" d="M337.09,164.47c-1.2,2.04-2.54,4.03-1.99,6.6-4.44,9.57-12.24,16.38-19.73,23.3-11.16,10.32-24.66,17.19-37.98,24.25-.88,.47-1.85,.72-2.86,.79-.66,.03-1.65,.17-1.9-.26-2.32-4.09-5.06-1.83-7.71-.6-5.82,2.71-11.75,5.06-17.93,6.93-3.02,.91-6.3,2.28-8.84,4.59-1.87,.73-4,.38-5.8,1.4-17.82,7.23-36.47,11.56-55.16,15.74-1.78,.4-3.6,.45-5.42,.42-3.03-.59-6.86,1.42-8.82-2.68-.57-1.7-2.04-1.34-3.33-1.41-4.26-.24-7.11-1.92-6.88-6.74,.76-2.8,3.32-3.52,5.49-4.63,15.2-7.76,31.16-13.89,46.39-21.62,5.61-2.85,10.54-6.93,16.54-9.04,7.02-.51,12.53-3.98,17.32-8.85,.33-.32,.71-.59,1.11-.82,1.89-.47,3.22-1.52,3.59-3.53,.62-.92,1.42-1.71,2.18-2.52,2.94-2.22,3.48-6.35,6.64-8.4,4.5-3.72,8.2-8.18,11.72-12.8,6.14-8.03,8.66-16.99,7-27.04,.39-1.1,1.21-1.57,2.32-1.64,4.25,.14,4.99,3.34,5.4,6.52,.9,7.02-1.1,13.5-4.44,19.55-2.96,5.36-6.58,10.31-9.87,15.74,8.2-9.7,15.57-19.45,15-32.99-.43-10.24-4.05-14.33-14.07-15.85-5.35-.81-10.61-.36-15.81,.5-8.17,1.37-16.1,3.78-23.8,6.88-.95,.21-1.87,.18-2.7-.38-.31-.3-.48-.68-.55-1.1,.09-.94,.18-1.89-.94-2.38-5.98,1.29-10.31,5.25-14.76,9.01-2.12,2.57-4.76,4.49-7.68,6.05-4.55,2.67-8.13,6.36-11.25,10.58-1.23,1.67-2.06,4.36-5.15,3.19-.65-1.24-.19-2.56-.32-3.85,.03-.79,.22-1.55,.43-2.25-2.57,1.7-4.26,4.31-6.7,6.08-5.08,5.29-10.86,9.86-15.74,15.35-1.73,1.47-5.71,1.61-3.23,5.54,.19,.43,.24,.87,.17,1.33-.43,.91-1.19,1.36-2.14,1.55-2.17,.06-3.81,1.22-5.32,2.64-16.86,18.77-29.09,39.96-33.74,65.02-1.02,5.51-1.89,11.09-.92,16.79,.38,2.21,.71,4.66-1.07,6.64-2.19,1.58-4.66,1.96-7.32,1.95-7.37-.04-14.75,.07-22.12,.12-1.26-1.21-1.78-2.72-1.88-4.43-.89-16.6,.39-32.93,6.01-48.73,2.28-3.23,2.26-7.6,5.19-10.52,2.65-5.37,5.3-10.74,7.95-16.11q3.54,.66,2.22,6.21c-2.07,5.88-4.82,11.52-6.23,17.63-.48,3-.04,6.15-1.16,9.12,.39-2.17,.58-4.42,2.32-6.01,11.38-31.74,31.6-57.28,56.19-79.7,28.73-26.2,62.4-42.37,100.72-48.77,14.99-2.5,29.99-3.02,44.98,.53,31.98,7.58,46.44,31.43,38.11,63.2-.4,1.38-.45,2.91-1.75,3.88Z"/>
        <path class="cls-117" d="M192.62,357.96c-5.34,.02-10.67,.04-16.01,.06-10.16-1.3-20.3-2.67-30.15-5.71-11.21-3.46-21.57-8.5-30.73-15.88-1.22-1.91-2.98-3.24-4.86-4.41-6.09-5.44-11.21-11.66-15.07-18.89-.23-.27-.31-.54-.27-.83,.05-.29,.11-.44,.17-.44,2.38-1.37,4.91-.74,7.41-.54,.14,.01,.27,.11,.41,.17,0-.16,0-.32-.01-.48-.06-.4,.12-.64,.5-.75,3.88-.13,7.76-.26,11.64-.38,3.04-1.44,6.25-.61,9.4-.69,.86,.1,1.62,.44,2.35,.89,5.02,4.68,8.74,10.52,15.08,14.1,14.16,7.99,29.04,12.61,45.34,12.47,5.02-.04,10.04-.01,14.95-.02-.75-.91-3.46,1.02-3.27-1.84,1.63-1.93,3.89-2.05,6.15-2.14,4.84-.4,9.51,1.4,14.37,1.02,2.16-.17,4.31-.13,6.31-.95,.24,.6-.15-.32,.46-.11,.65,.22,.91-.17,.05-.22-2.13-.14-4.28-.05-6.4-.22-1.47-.12-3.49,.45-3.85-1.98,4.47-.11,8.94-.2,13.42-.34,28.54-.87,50.86-15.58,71.98-32.65,8.27-6.68,15.87-14.2,24.05-21.6,.73,1.95,.32,4.14,3.02,4.06,3.88-.12,2.31,1.97,1.27,3.68-5.3,8.76-12.63,15.81-19.99,22.71-30.32,28.41-65.93,45.79-107.38,50.84-3.44,.42-6.99-.18-10.33,1.08Z"/>
        <path class="cls-44" d="M103.91,204.59c-.82-2.04,1.62-5.25-2.22-6.21,15.07-27.01,35.39-49.49,59.5-68.68,17.02-13.55,35.84-23.81,56.4-30.91,1.36-.79,2.58-.84,3.49,.69,.21,.86,.02,1.63-.52,2.32-32.87,11.73-60.59,31.03-83.96,56.81-12.73,14.04-24.3,28.88-32.69,45.99Z"/>
        <path class="cls-78" d="M205.62,333.97c-2.23-.28-4.23,.71-6.33,1.13-1.87,1.54-3.78,.6-5.64,.03-15.47-4.7-28.18-13.57-38.74-25.67-1.07-1.23-2.35-2.45-1.49-4.36l.34,.06c1.2-.92,2.51-.68,3.75-.21,.65,.24,.73,1.16,1.29,1.59-.5-.71-.76-1.46-.34-2.31,1.05-.08,2.11-.16,3.16-.23,1.46,.76,2.86,1.61,3.98,2.85,4.21,4.67,9.04,8.55,14.59,11.53,1.28,.69,2.61,1.43,3.31,2.84,10.24,5.86,21.57,7.74,33.07,8.98,4.48,2.06,9.71-.65,14.07,2.6-.67,1.99-2.15,.46-3.34,.33-10.28,2.25-20.24,.16-30.15-2.3-6.9-1.71-13.33-4.67-19.51-8.14-2.6-1.78-5.16-3.63-7.74-5.45-1.34-.84-2.51-1.89-3.6-3.03,.99,1.1,2.07,2.09,3.34,2.87,2.4,1.87,4.98,3.49,7.43,5.3,8.27,5.01,17.24,8.17,26.66,10.16,.91,.19,2.11-.11,1.9,1.48Z"/>
        <path class="cls-134" d="M253.55,13.2c-.36,2.12-.59,4.27-1.09,6.35-1.41,5.9-1.45,5.89,4.21,7.16-.06,.3-.08,.86-.17,.87-6.41,.8-7.34,5.55-8.27,10.72-.46,2.56-.8,5.65-4.29,7.68,.84-4.42,1.32-8.37,2.39-12.16,1.13-4.01,.19-5.91-4.16-5.6-1.15,.08-2.31,.04-3.46,.06-.52,.23-1.07,.35-1.64,.37-4.41-.75-9.01,.66-13.32-1.2-.5-.43-.58-.92-.25-1.49,3.52-1.21,7.19-1.23,10.82-1.05,3.03,.15,3.95-1.11,4.29-3.94,.49-4.18-.18-8.26-.34-12.38-.07-1.69-.23-3.87,1.88-3.91,2.2-.04,1.29,2.29,1.32,3.55,.12,5.45,.12,10.92-1.43,16.23,7.81,1.24,7.73,1.22,9.52-6.16,.69-2.83,1.79-5.57,2.7-8.35,2.52,.26,1.55,1.91,1.29,3.26Z"/>
        <path class="cls-8" d="M66.92,118.63c.34,1.01,.68,2.01,1.02,3.02,.86,2.41,1.01,4.92,1,7.45-.02,6.52-2.78,12.06-6.52,17.14-1.55,2.1-3.54,4.06-6.68,2.73-2.27-2.58-.85-5.7-1.24-8.55,.4-1.99,.81-3.98,1.58-5.87,1.59-5.13,4.29-9.69,7.18-14.17,.9-1.25,1.86-2.36,3.65-1.75Z"/>
        <path class="cls-104" d="M66.92,118.63c-1.01,.68-2.02,1.36-3.03,2.04-.91,.18-1.44-.01-1.03-1.09,1.49-2.02,1.58-3.72-.54-5.56-2.5-2.18-4.79-4.61-7.75-6.19-1.91-1.03-3.82-2.54-2.2-4.51,1.69-2.05,3.11,.56,4.38,1.52,3.47,2.62,6.05,6.1,8.67,9.53,5.91-5.33,5.91-5.78,2.32-12.04-3.09-5.38-6.47-10.71-6.37-17.43,3.02,6.95,7.23,13.09,11.72,19.2,2.29-.63,2.22-3.62,5.71-4.62-6.21,7.63-.07,12.2,2.65,17.62,.77,1.54,2.09,3.11,.9,5.74-2.4-3.38-4.74-6.41-6.78-9.61-2-3.13-3.81-2.75-5.19,.2-.92,1.95-3.45,2.74-3.45,5.21Z"/>
        <path class="cls-82" d="M167.47,302.26c1.19-.05,2.38-.11,3.57-.16,9.29,10.77,21.51,16.19,35.11,18.86,12.01,2.37,24.08,1.62,36.1-.18,1.2,.05,2.9-1.18,3.21,1.22-20.29,4.61-40.21,4.65-59.34-4.85-1.47-.73-2.95-1.45-4.43-2.17-5.91-1.54-9.78-5.94-13.9-9.97-.71-.69-.95-1.75-.32-2.75Z"/>
        <path class="cls-126" d="M321.52,48.72c6.76,3.09,13.51,6.23,20.3,9.27,4.59,2.06,7.06,.42,7.24-5,.18-5.56-1.97-10.7-3.25-15.99-.75-3.11-2.11-6.49,1.45-8.98,1.26-.71,2.1-.65,2.05,1.09-1.81,3.3-.18,6.4,.54,9.57,.83,3.69,1.98,7.35,2.38,11.09,.96,8.87-4.21,13.34-12.71,10.69-7.05-2.19-13.98-4.95-19.48-10.26-.27-1.26,.36-1.62,1.49-1.48Z"/>
        <path class="cls-80" d="M145.77,56.93c-.06,1.98-.08,3.96-.19,5.94-.07,1.28-.02,3.01-1.56,3.18-1.33,.15-2.18-1.25-2.78-2.48-3.54-7.29-4.11-15.27-5.32-23.09-.36-2.33-.77-4.55-2.17-6.49,.63-2.69,2.24-1.77,3.8-1.03,3.29,6.31,2.17,13.5,4.01,20.09,.44,1.57,.49,3.39,1.36,4.66,1.11,1.63,1.08-.62,1.71-.87,.41-.41,.79-.38,1.13,.08Z"/>
        <path class="cls-49" d="M273.38,32.94c-.23-3.92,1.82-5.72,5.54-5.63,1.73,.04,3.14-.38,4.53-1.35,2.65-1.84,3.92-.99,3.83,2.15-1.54,1.31-.64,3.09-.87,4.65-.48,3.29-1.87,5.92-4.91,7.5-2.21,.84-4.41,2.89-6.78,.49-2.01-2.04-.86-4.3-.15-6.49,.17-.53,.84-.85,.62-1.53-.57,.38-1.17,.58-1.82,.19Z"/>
        <path class="cls-116" d="M293.27,44.9c-2.25,.66-2.78-.34-1.98-2.24,4.5-10.68,7.56-21.99,13.9-31.86,2.41-1.65,2.91-.43,2.32,1.7-.78,2.81-2.32,5.28-4.15,7.55-1.23,3.33-2.5,6.64-3.68,9.99-.35,.99-1,2.19,.53,2.91,.38-.39,.79-.4,1.22-.07-1.5,4.83-5.03,8.29-8.16,12.02Z"/>
        <path class="cls-98" d="M147.73,30.98c.31-1.61,1.19-2.91,2.9-2.69,1.47,.19,1.91,1.83,2.11,3.05,1.12,6.78,2.08,13.59,3.1,20.38,.87,1,2.58,1.49,2.04,3.34-.47,1.78,.8,4.78-1.35,5.13-2.11,.34-2.32-2.64-2.97-4.44-2.67-7.35-2.39-15.2-3.88-22.75-.38-.93-2.66-.02-1.96-2.02Z"/>
        <path class="cls-55" d="M386.94,58.83c-2.75,3.09-5.51,6.18-8.3,9.32,1.52,1.33,3.12,.19,4.41,.87-.05,.83-.15,1.59-1.3,1.01-3.77-.22-6.43,2-9.2,4.08-1.31,.98-2.36,3.06-5.27,1.13,8.19-7.66,13.83-17.49,23.54-23.44,.9-.47,1.36,0,1.7,.77-.2,3.56-2.92,4.88-5.57,6.27Z"/>
        <path class="cls-43" d="M412.93,100.82c1.41-.09,2.07,.58,2.05,1.97,1.54,6.55-.1,9.51-6.43,11.62-4.45-1.79-7.11-5.48-6.33-8.76,.85-3.57,4.88-5.39,10.7-4.83Z"/>
        <path class="cls-50" d="M220.67,99.87c-.71-1.26-1.99-.9-3.08-1.08,14.77-5.48,29.9-9.31,45.71-10.01l-.07-.07c.31,2.23-1.42,1.7-2.59,1.9-10.08,1.78-20.14,3.63-30.04,6.29-3.36,.82-6.04,3.9-9.92,2.97Z"/>
        <path class="cls-107" d="M137.57,32.96c-1.32,.16-2.84-.42-3.8,1.03-9.51,3.7-12.64,13.66-6.85,21.45,.85,1.15,2.86,2.73,1.05,4.16-1.62,1.27-2.97-.59-4.06-1.78-4.67-5.09-5.03-8.77-1.51-14.75,2.46-4.17,5.37-7.95,9.38-10.75,2.05-1.43,4.16-2.3,5.79,.64Z"/>
        <path class="cls-102" d="M199.56,44.88c-2.92,5.18-6.78,5.79-11.29,1.73-1.02,1.3-1.17,3.63-3.66,3.21,.87-5.24,1.13-10.68,5.03-14.9l-.09,.1c1.14-1.25,1.91-3.45,4.22-2.13,1.88,1.07,1.71,2.94,1.38,4.79-.48,2.66-1.55,5.19-2.18,7.84,2.64,.73,4.42-1.6,6.59-.63Z"/>
        <path class="cls-11" d="M293.27,44.9c1.71-4.57,4.49-8.43,7.86-11.91,3.84-.65,4.86,.14,4.15,3.26-.26,1.14-.82,2.17-1.41,3.17q-3.1,5.24,1.44,7.79c-3.39,2.83-6.52,2.59-8.03-1.05-1.04-2.49-2.61-1.11-4.01-1.27Z"/>
        <path class="cls-34" d="M281.37,40c2-3.47,5.75-6.24,3.53-11.28-.64-1.44,1.47-.65,2.39-.6,1.96,3.98,.31,7.79-.92,11.42-1.66,4.91-3.92,9.61-5.93,14.4-2.46-.28-1.46-1.8-1.11-3.09-.26-3.56,3.69-6.28,2.04-10.12-.36-.16-.48-.32-.36-.48,.12-.16,.24-.24,.36-.24Z"/>
        <path class="cls-63" d="M199.56,44.88c-2.5,1.56-5.14,2.75-8.74,3.26,1.12-3.67,2.13-6.83,3.05-10.01,.45-1.56,1.18-3.43-.47-4.54-1.57-1.07-2.37,1.4-3.85,1.43,.57-3.12,2.66-4.74,5.58-4.27,3.64,.58,2.33,3.7,2.35,6.03-.49,1.69-1.15,3.34-1.23,5.15,1.32,.14,2.37-.33,3.42-.81,2.53,1.34,.02,2.51-.12,3.77Z"/>
        <path class="cls-25" d="M414.07,121.75c7.23-2.31,14.04-5.83,21.57-7.23,1.49-.35,2.95-.56,4.36,.23-.44,2.1-2.35,.95-3.07,1.96-5.41,2.54-10.85,5.01-16.8,6.1-2.07-.07-4.48,1.81-6.07-1.05Z"/>
        <path class="cls-101" d="M412.93,100.82c-.48,1.34-1.59,.82-2.48,.81-3.43-.04-6.86,1.01-7.04,4.61-.17,3.3,1.49,6.7,5.6,7.54,.96,0,1.87,.09,2.36,1.09-3.73,1.79-6.75,.23-9.11-2.43-2.79-3.16-3.59-6.87-1.25-10.78,3.58-3.06,7.64-3.34,11.94-.83h-.02Z"/>
        <path class="cls-13" d="M305.32,47.21c-.66,0-1.34,.11-1.98,0-1.59-.26-3.86,.42-4.6-1.02-.94-1.84,1.28-3.08,2.23-4.53,.99-1.51,2.05-2.99,2.98-4.54,1.97-3.31,.74-4.53-2.81-4.14-.31-.02-.62-.03-.93-.04,1.87-2.65,4.64-3.12,6.9-1.4,2.5,1.9,.74,4.31-.32,6.66-.81,1.79-2.44,2.43-3.44,3.81-.39,2.1,1.15,1.83,2.32,1.78,1.09-.04,2.44-.83,2.92,.72,.62,1.98-1.5,1.66-2.37,2.4-.34-.02-.65,.08-.91,.3Z"/>
        <path class="cls-71" d="M397.21,96.84c-5.84,1.5-10.34-.72-11.62-5.75-1.3-5.12,1.13-7.79,8.42-9.22,.61,.54,.66,1.2,.43,1.92-5.45,5.44-5.36,6.73,.79,11.2,.78,.49,1.58,.96,1.99,1.85Z"/>
        <path class="cls-100" d="M173.98,45.09c-1.96,1.49-6.26,2.54-4.65,5.12,1.68,2.68,5.28,.44,7.77-1.17,.68-.44,1.26-1.01,1.96-1.59,0,4.57-8.26,9.84-11.87,7.63-2.2-1.35-1.62-3.5-.73-5.25,.82-1.6,2.1-2.95,1.36-4.94,2.09-1.08,4.16-1.56,6.16,.19Z"/>
        <path class="cls-15" d="M97.51,95.83c1.32-2.1,2.21-3.52,3.41-5.43,.86,2.58,.07,4.39-.59,6.14-.48,1.27-1.31,2.38-2.94,2.1-1.44-.25-3.14-.51-3.57-2.11-.91-3.35-1.74-6.7-3.47-9.76-.44-.78-.38-1.62,.67-1.98,1.17-.39,1.75,.3,2.39,1.18,1.99,2.74,2.5,6.08,4.1,9.85Z"/>
        <path class="cls-62" d="M265.4,28.03c-1.08,3.43-2.16,6.87-3.23,10.27,2.12,1.76,3.89-.38,6.49-1.01-1.68,3.55-3.58,5.84-6.94,4.82-3.15-.95-2.42-3.88-1.89-6.31,.79-3.69,1.61-7.39,3.62-10.67,3.41-.88,2.62,1.05,1.94,2.9Z"/>
        <path class="cls-121" d="M82.79,92.84c3.92-.49,4.14,2.34,5.1,4.46,1.24,2.75,1.99,7.21,6.1,1.22,.15,3.74,.44,6.91-3.41,7.32-3.27,.35-4.39-2.33-5.07-5.04-.66-2.62-1.01-5.33-2.72-7.96Z"/>
        <path class="cls-67" d="M355.11,63.91c1.4-5.66,6.77-8.71,12.13-6.88,2.45,.84,3.15,2.41,1.63,4.56-1.39,1.97-2.73,4.11-5.37,4.72-.14-.39-.36-.69-.34-.97,.17-1.77,3.5-3.12,1.19-5.05-2.07-1.74-4.4-.54-6.32,1.01-1.02,.83-2,1.7-3.01,2.55,0,0,.09,.05,.09,.05Z"/>
        <path class="cls-133" d="M233.8,36c-4.56,6-10.83,7.6-17.94,6.79-1.82-.21-3.49-.98-4.43-2.76-.23-1.55,.92-1.73,1.98-2.02,6.7,1.71,12.84-.48,18.99-2.69,.55,.06,1.02,.28,1.41,.68Z"/>
        <path class="cls-5" d="M183.5,321.2c-8.92-3.67-15.83-9.9-21.88-17.21,.59-.8,1.25-.29,1.89-.12,4.26,2.41,7.46,6.19,11.56,8.82,1.5,.96,2.82,2.21,4.54,2.81,.43,.1,.86,.19,1.3,.25,1.68,1.42,5,2.07,2.59,5.44Z"/>
        <path class="cls-7" d="M55.99,148.82c3.38,.25,5.04-2.27,6.46-4.54,2.76-4.43,5.12-9.11,5.65-14.46,2.4,1.26,1.12,3.25,.99,5.01-1.36,6.25-3.58,12.01-9.13,15.84-1.93,.69-3.58,.75-3.96-1.86Z"/>
        <path class="cls-129" d="M263.3,88.78c9.09-1.42,18.23-1.24,27.37-.63,1.06,.07,1.48,.51,.94,1.54l-.24,.05c-7.7-.24-15.41-.86-23.08,.22-2.01,.28-3.26-1.32-5.06-1.25,0,0,.07,.07,.07,.07Z"/>
        <path class="cls-115" d="M106.26,86.52c2,.29,2.46-2.17,4.51-1.38,.17,2.38-.84,4.18-3.27,4.49-1.96,.25-3.33-1.09-3.8-3.12-.66-2.87-1.46-5.72-1.94-8.62-.21-1.3-.83-3.41,1.19-3.67,1.55-.2,1.61,1.84,1.84,3.01,.6,3.05,.99,6.14,1.47,9.3Z"/>
        <path class="cls-127" d="M189.64,34.92c-2.55,4.67-1.6,10.53-5.03,14.9-1.75-.7-1.14-2.21-.98-3.38,.64-4.68,.96-9.38,.88-13.92,3.07-1.36,2.09,4.25,5.14,2.4Z"/>
        <path class="cls-66" d="M386.94,58.83c1.71-1.95,3.43-3.9,5.14-5.85,1.45-1.67,3.37-2.9,5.01-.9,1.66,2.02,.26,3.99-1.48,5.57-.35,.32-2.72,.31-.51,1.56-3.07,7.19-5.48,.41-8.17-.38Z"/>
        <path class="cls-45" d="M414.07,121.75c1.76,1.9,4.1,.42,6.07,1.05-6.79,2.47-6.89,3.08-1.62,10.2-3.71,.36-9.51-5.8-8.48-9.21,.54-1.78,2.39-1.92,4.03-2.05Z"/>
        <path class="cls-28" d="M281.37,40c0,.24,0,.48,0,.73-2.37,2.58-5.52,3.92-8.28,1.66-3.42-2.8-.83-6.3,.29-9.45,1.92-1.19,2.91-3.68,6.17-4.06-1.17,1.49-2.15,2.57-2.94,3.79-1.36,2.09-2.79,4.43-1.46,6.86,1.61,2.93,4.12,.38,6.22,.48Z"/>
        <path class="cls-77" d="M381.75,70.02c.43-.34,.87-.67,1.3-1.01,2.33,0,3.7,1.24,3.96,3.48,.25,2.18-1.15,3.46-2.67,4.89-1.82,1.71-5.15,.38-6.14,3.35-1.65,.93-2.92,.2-4.1-.93,2.48-1.55,4.99-3.05,7.42-4.67,2.36-1.56,2.38-3.32,.21-5.13Z"/>
        <path class="cls-93" d="M159.53,38.75c.03-4.97,.04-9.95,.1-14.92,.02-1.48,0-3.47,1.92-3.4,1.82,.06,1.19,2.06,1.19,3.25,.02,5.83-.74,11.57-2.14,17.22-1.93,.07-1.29-1.14-1.07-2.15Z"/>
        <path class="cls-1" d="M303.36,20.05c.56-2.87,1.89-5.43,3.23-7.99,1.18-2.24-.34-1.49-1.39-1.27,.28-1.85,1.74-2.27,3.22-2.65,1.75,.75,3.92,1.2,3.63,3.79-.32,2.95-1.81,5.1-4.75,6.05-.41,2.4-2.82,1.01-3.94,2.07Z"/>
        <path class="cls-2" d="M337.09,164.47c.39-1.38-.26-3.23,1.75-3.88,8.22,.02,16.44,.1,24.51,1.94-5.48,0-10.96,.06-16.43,.01-3.42-.03-6.86-.28-9.83,1.93Z"/>
        <path class="cls-65" d="M349.3,29.11c-.42-.86-1.21-1.02-2.05-1.09,4.86-2.73,10.79-2.43,14.8,.74,3.13,2.47,2.79,5.16-.94,7.5,.17-7.18-4.06-9.74-11.81-7.15Z"/>
        <path class="cls-95" d="M397.21,96.84c-.72-.26-1.44-.52-2.16-.77,1.46-3.63,4.88-6.65,3.42-11.18,.23-.69,.5-1.35,1.45-1.02,5.23,4.99,4.06,10.57-2.71,12.97Z"/>
        <path class="cls-140" d="M355.02,63.86c3.32,3.57,5.3,4.79,10.79,6.62-3.38,3.1-6.57,1.71-9.42-.37-2.03-1.48-3.45-3.61-1.28-6.2,0,0-.09-.05-.09-.05Z"/>
        <path class="cls-38" d="M395.11,59.21c-1.56,.2-3.07,1.39-4.73,.26,2.74-1.62,6.99-2.41,6.25-6.48-.49-2.71-2.96,.04-4.55,0-.42-.4-.85-.8-1.27-1.2,2.73-1.97,5.96-3.47,7.95,.2,1.75,3.23-.05,6-3.65,7.22Z"/>
        <path class="cls-19" d="M411.37,114.88c-.89-.14-1.8-.23-2.36-1.09,5.12-1.97,5.21-6.66,5.97-10.99,3.88,6.34,2.79,9.96-3.61,12.08Z"/>
        <path class="cls-46" d="M326.35,43.12c4.87,1.89,10.18-.31,15.1,1.67,1.91,.77,3.82,1.15,4.54,4.34-6.65-2.19-12.91-4.57-19.64-4.34-.69-.56-.7-1.12,0-1.67Z"/>
        <path class="cls-130" d="M213.48,38.93c-.84,.09-1.64,.24-2.06,1.11-2.5-4-.29-6.95,2.46-9.42,2.69-2.42,5.93-4.1,9.61-4.66,.03,.46,.06,.93,.09,1.39-.33,1.79-1.98,2-3.24,2.55-4.01,1.74-6.52,4.55-6.86,9.04Z"/>
        <path class="cls-10" d="M291.37,89.74s.24-.05,.24-.05c7.11-2.69,12.88,1.62,19,4.14-6.41-1.36-12.83-2.73-19.24-4.09Z"/>
        <path class="cls-118" d="M167.47,302.26c3.31,5.83,9.39,8.57,14.22,12.72-.26,.26-.52,.52-.78,.77,0,0-.32,.32-.32,.32-6-2.24-10.42-6.61-14.76-11.06-.69-.71-.98-1.73-.16-2.68,.6-.03,1.19-.05,1.79-.08Z"/>
        <path class="cls-24" d="M83.82,224.23c.06-1.1,.97-1.57,1.59-2.3,2.11-2.44,1.34-3.67-1.77-3.7,1.15-1.22,2.59-1.84,4.22-2.11,5.04-.4,5.07-.34,3.12,3.98-.41,.91-.74,1.83-1.37,2.61-1.71,1.33-3.3,3.15-5.78,1.52Z"/>
        <path class="cls-20" d="M121.75,70.8c-.07,1.32-6.05,5.85-7.13,5.34-.34-.16-.6-.7-.7-1.12-.35-1.42,.62-2.01,1.66-2.66,1.79-1.11,3.11-3.09,5.43-3.14,.72-.02,.74,.93,.73,1.59Z"/>
        <path class="cls-139" d="M245.46,322c-.72-1.33-2.15-.77-3.21-1.22,5.36-1.29,10.72-2.58,16.09-3.87-3.75,3.26-8.16,4.61-12.88,5.09Z"/>
        <path class="cls-96" d="M159.53,38.75c.36,.72,.71,1.43,1.07,2.15-1.33,4.64-.88,9.62-2.73,14.16-.5-1.22-2.67-1.43-2.04-3.34,3.2-3.76,1.27-8.99,3.7-12.97Z"/>
        <path class="cls-131" d="M62.86,119.58c.34,.36,.69,.72,1.03,1.09-2.14,4.73-5.34,8.94-6.98,13.93-.94,.21-1.43-.03-1.1-1.1,1.37-5.13,3.8-9.73,7.05-13.92Z"/>
        <path class="cls-69" d="M374.11,79.82c1.37,.31,2.73,.62,4.1,.93,1.8,.99,3.6,1.99,5.41,2.99-4.81,1.76-7.44,.67-9.51-3.92Z"/>
        <path class="cls-84" d="M307.3,17.98c4.72-4.56,4.96-6.67,1.11-9.84,2.44-.47,4.64-.6,5.02,2.76,.41,3.59-2.01,6.43-6.14,7.09Z"/>
        <path class="cls-125" d="M279.33,50.85c.19,1.09-.19,2.39,1.11,3.09-3.22,6.53-6.39,8.08-12.08,5.93,1.05-1.45,2.72-.38,3.98-.96,4.98-.39,4.67-5.37,7-8.06Z"/>
        <path class="cls-135" d="M253.55,13.2c-.19-1.19,.07-2.55-1.29-3.26,.58-3.5,2.76-6.03,5.06-8.54-.38,4.27-1.74,8.15-3.77,11.8Z"/>
        <path class="cls-51" d="M167.75,41.02c.62-4.63,4.83-3.77,7.67-4.79,1.39-.5,1.58,.19,.12,3.52-1.78,1.84-4.18,1.54-6.4,1.87-.52-.07-.98-.27-1.39-.6Z"/>
        <path class="cls-109" d="M88.88,222.12c.35-.75,.59-1.59,1.08-2.23,2.24-2.94,1.01-3.86-2.11-3.77,1.62-1.77,3.73-1.78,5.88-1.64-.52,3.55-1.91,6.78-3.61,9.9-1.09-.38-1.21-1.3-1.25-2.26Z"/>
        <path class="cls-25" d="M445.95,117.7c-.65,5.99-3.26,7.34-8.74,4.52,1.8-1.84,5.09-1.04,6.47-3.64,.76-.3,1.13-1.58,2.27-.89Z"/>
        <path class="cls-16" d="M445.95,117.7c-.76,.3-1.51,.59-2.27,.89-1.26-4.17-4.53-1.13-6.74-1.88,.7-.56,1.41-1.11,2.3-1.82-1.38-.14-2.49-.25-3.6-.37,5.66-1.78,8.27-.97,10.31,3.18Z"/>
        <path class="cls-57" d="M220.67,99.87c3.22-1.28,6.35-2.88,9.92-2.97-2.75,2.85-6,4.68-10.04,4.9,.04-.64,.08-1.28,.12-1.92Z"/>
        <path class="cls-79" d="M265.4,28.03c0-1.41,.31-3.01-1.94-2.9,.04-1.58,.65-2.93,1.62-4.14,.58-1.14,.57,2.77,1.45,.15,.39-1.16,1.14-2.39,2.8-2.19,.08,3.63-1.64,6.47-3.93,9.08Z"/>
        <path class="cls-92" d="M145.77,56.93c-.38-.03-.75-.06-1.13-.08,1.22-5.86,.71-11.84,1.27-17.74,2.54,1.28,1.01,3.33,.95,5.1,.03,4.28-.1,8.54-1.09,12.73Z"/>
        <path class="cls-52" d="M103.21,72.06c-3.51-1.89-3.55-4.11-3.01-6.33,.24-.97,1.63-1.5,2.41-.84,2.53,2.17-.33,4.27,.6,7.17Z"/>
        <path class="cls-86" d="M269.34,18.95c-1.44,.64-1.28,4.6-4.25,2.04,.33-1.22,.47-2.55,1.05-3.63,.42-.78,1.46-1.42,2.49-.96,1.15,.5,.77,1.61,.7,2.56Z"/>
        <path class="cls-21" d="M146.86,44.2c-.59-1.65,.34-3.58-.95-5.1-.17-2.88,.07-5.67,1.82-8.12,.65,.67,1.3,1.34,1.96,2.02-2.89,.31-1.55,2.67-1.89,4.12-.54,2.31,.1,4.81-.93,7.08Z"/>
        <path class="cls-43" d="M412.95,100.82c-4.13-1.82-8.13-1.87-11.94,.83,.02-.32-.08-.71,.07-.95,1.85-3.01,9.84-2.91,11.87,.12Z"/>
        <path class="cls-99" d="M272.33,58.91c-1.04,1.51-2.63,.74-3.98,.96-2.51-3.23,.87-4.42,2.47-7.17,.24,2.65-1.31,5.16,1.51,6.21Z"/>
        <path class="cls-56" d="M98.84,225.33c-.1,2.64-.93,5.03-2.54,8.14-.82-4.58-.09-7.96,1.38-11.25,.53,.98-.29,2.47,1.16,3.11Z"/>
        <path class="cls-22" d="M55.99,148.82c.85,1.62,2.37,1.83,3.97,1.86-3.6,2.02-5.39,.04-5.92-3.14-.43-2.55-.02-5.23,.02-7.86,.33-.36,.66-.35,.99,0,.28,3.05-.68,6.23,.94,9.15Z"/>
        <path class="cls-113" d="M69.08,134.83c-.6-1.62,.69-3.61-.99-5.01-.05-2.72-.1-5.44-.15-8.17,2.48,4.21,2.91,8.6,1.14,13.18Z"/>
        <path class="cls-47" d="M199.68,41.11c-.97,2.41-3.09,2.41-5.99,2.85,1.47-2.79,2.63-4.98,3.79-7.18,.42,1.6-.7,3.99,2.2,4.34Z"/>
        <path class="cls-39" d="M168.72,41.01c2-1.89,4.59-.61,6.82-1.26-.28,1.02-.57,2.04-.85,3.05-2.48,1.02-5.29,3.14-5.96-1.8Z"/>
        <path class="cls-119" d="M168.72,41.01c.92,4.13,4.07,.9,5.96,1.8,.76,1.07,.37,1.79-.71,2.29-2.04-.4-4.13,.81-6.16-.19-.76-1.28-.71-2.58-.07-3.89,.32,.04,.65,.03,.97,0Z"/>
        <path class="cls-40" d="M326.35,43.12c0,.56,0,1.12,0,1.67-1.8,1.07-6.54-1.45-4.83,3.93-.5,.49-.99,.99-1.49,1.48-1.85-5.22-.62-6.59,6.32-7.09Z"/>
        <path class="cls-3" d="M306.23,46.91c.53-.91,2.11-1.03,1.89-2.5-5.08,.62-5.25,.53-4.77-2.39,.82,1.06,2,.92,3.13,.95,1.31,.03,2.79-.15,2.79,1.8,0,2.08-1.45,2.25-3.05,2.15Z"/>
        <path class="cls-27" d="M233.8,36c-.48-.04-.95-.08-1.43-.12,.62-3.29,2.43-5.81,5.04-7.83,.43,.07,.86,.14,1.3,.21-1.34,2.76-2.06,5.92-4.91,7.73Z"/>
        <path class="cls-97" d="M399.92,83.88c-.3,.33-.61,.67-.91,1-1.93,.63-3.64,.39-5.01-1.23,0-.59,.01-1.18,.02-1.77,2.3-.31,4.3,.26,5.91,2Z"/>
        <path class="cls-108" d="M55.04,139.67l-.49-.04s-.49,.04-.49,.04c.01-2.22,.55-4.29,1.75-6.17,.37,.37,.73,.73,1.1,1.1-.93,1.58-.38,3.7-1.86,5.07Z"/>
        <path class="cls-68" d="M113.85,276.11c-3.13-35.16,12.8-63.05,34.04-88.89,.35-.43,1.15-.5,1.74-.74,1.61,2.19,.08,4.1-.69,5.95-1.21,2.88-2.41,5.75-3.54,8.66-.4,1.02-.5,1.94,1,2.08,.66,.36,1,.93,1.19,1.62,.24,3.96-1.62,7.4-2.89,10.95-1.91,5.32-3.24,10.75-4.09,15.39,1.91-8.11,5.19-16.74,8.6-25.27,3.48-8.72,6.82-17.6,12.63-25.2,.99-1.04,2.5,.44,3.48-.72,.79-.78,1.53-1.64,2.76-1.71,.76,.27,1.09,.84,1.17,1.61-2.63,8.23-7.95,15.23-10.71,23.4-.15,.27-.31,.53-.45,.81-.28,.56-.55,1.13-.5,1.79,.24-.56,.28-1.18,.6-1.72,6.27-13.75,12.71-27.46,22.64-38.99,5.56-6.46,10.65-13.45,17.68-18.55,2.38-1.94,4.77-3.88,7.15-5.83,1.82-.6,3.34-.4,4.2,1.56-1.14,3.39-5.03,4.02-6.81,6.77-2.21,2.23-4.41,4.49-6.68,6.67,2.38-2.16,4.56-4.53,6.89-6.76,6.61-5.31,12.93-11.09,21.49-13.22,12.2-5.71,24.93-9.02,38.5-8.32,14.75,.76,18.42,8.89,17.07,22.3-1.28,12.71-8.91,22.24-17.37,31.13-.6,.64-1.39,.87-2.54,.04,3.45-5.28,7-10.52,10.34-15.89,4.08-6.55,7.3-13.45,6.62-21.46-.24-2.87-.23-6.09-4.06-6.96-1.88-1.01-3.91-1.65-5.98-2.25,1.93,.42,3.46,1.31,4.04,3.32,3.52,9.42,.03,17.54-5.05,25.16-4.11,6.16-8.48,12.19-14.83,16.37-.49-3.1,1.02-5.83,1.68-8.7,2.36-10.3-1.7-21.4-9.76-26.25-7.75-4.67-21.42-3.37-28.67,2.73-1.28,1.08-2.39,2.31-3.18,3.79-1.11,2.08-2.25,4.29-.8,6.56,1.45,2.26,3.77,1.41,5.91,1.22,2.4-.21,4.86-1.5,7.24,.12,.74,.8,1.13,1.73,1.15,2.82-3,9.55-10.09,14.64-19.19,17.52-1.5,.48-3.01,.47-4.02-.95-1.06-1.5-.3-2.8,.73-3.98,.88-.88,2.16-1.25,3.03-2.27-.46-1.14-2.49-.64-2.47-2.28,.79-3.08,3.72-3.42,5.79-4.66-4.51-.12-6.75,3.91-10.1,6.05-.47,.16-.94,.2-1.43,.15-1.92-.8-3.34-2.01-3.49-4.26,.09-.73,.41-1.35,.91-1.88,.69-.62,1.46-1.16,2.02-1.98-.81,.1-1.14,.81-1.69,1.21-2.35,1.84-3.82,4.31-4.95,7.01-3.02,5.2-1.65,10.39,.06,15.57,0,1.46-.69,2.28-2.17,2.4-3.22-1.99-3.33-2.16-4.53-6.6,1.02,5.89,4.5,9.83,9.85,12.31,11.1,6.09,21.61,2.68,32.01-2.01,2.08-.94,3.72-2.74,6.09-3.15,1.54-.04,2.51,.66,2.86,2.18-.4,5.92-5.76,6.86-9.51,9.39-.91,.61-2.25,.36-3.15,1.16-21.59,13.41-45.74,21.63-68.05,33.57-.3,.7-.84,1.15-1.5,1.51-2.66,1.19-5.3,2.42-7.66,4.17-4.07,1.99-5.53,5.29-5.38,9.73,.19,5.95-.18,11.91,1.02,17.81,.32,1.57,.82,3.27-.3,4.8-8.63,1-17.18,2.96-25.95,2.07Z"/>
        <path class="cls-68" d="M274.94,218.52c22.6-11.28,43.87-24.25,58.3-45.9,.43-.64,1.23-1.03,1.86-1.54,6.22,1.43,12.62,1.87,18.51,4.95,8.68,4.53,10.64,11.77,4.39,19.41-6.71,8.19-15.46,13.89-24.49,19.17-21.12,12.33-43.81,21.09-66.81,29.1-30.36,10.57-61.4,18.6-92.95,24.73-6.28,1.22-12.45,3.16-18.95,3.01-4.03-6.33-3.8-13.34-3.12-20.36,.23-2.38,2.28-2.98,4.36-3.19,3.1-.69,6.22-1.16,9.4-.6,1.9,.24,4.44-.02,2.6,3.23-.39,.29-.79,.54-1.31,.56-.05,0,.15,.19,.61,.1,26.28-5.41,52.33-11.61,77.59-20.82,10.11-3.69,19.7-8.69,30.02-11.83Z"/>
        <path class="cls-4" d="M88.88,222.12c.98,.45,.94,1.45,1.25,2.27-5.81,17.51-8.08,35.4-5.71,53.78-12.92,.44-25.69-.14-37.7-5.73-9.45-4.4-11.28-11.08-5.01-19.39,4.42-5.86,10.29-10.21,16.32-14.28,8.2-5.54,17.01-10.02,25.8-14.53,2.03,.12,3.34-1.47,5.06-2.11Z"/>
        <path class="cls-122" d="M153.42,305.1c9.41,13.58,22.37,22.39,37.75,27.85,2.62,.93,5.18,2.3,8.11,2.15,1.5,.49,3,.99,4.5,1.48-29.47,2.69-57.05-.21-76.98-25.76q-.05-1.86,3.84-2.59c7.66-.54,15.24-1.67,22.77-3.14Z"/>
        <path class="cls-76" d="M139.8,274.04c-1.68-7.1-2.33-14.31-2.5-21.6-.14-5.77,1.26-10.4,7.41-12.28,1.07-.43,1.61,.85,2.69,.75,3.31-.3,2.79,1.45,1.44,3.19-1.24,1.61-2.08,3.33-2.51,5.29-.93,5.85,.41,11.54,1.16,17.27,.26,1.97,.88,3.92-.6,5.68-2.16,1.4-4.51,2.03-7.08,1.68Z"/>
        <path class="cls-29" d="M156.67,248.98c-2.73-.09-4.01,.82-4.06,3.96-.11,6.3,1.06,12.39,2.19,18.5-1.89,1.29-4.05,.4-6.06,.74-2.92-5.21-2.57-11.01-2.98-16.67-.14-1.96-.09-3.94,.06-5.9,.35-1.06,.02-2.71,.8-3.2,3.76-2.39,3.48-6.7,5.15-10.07,.62-.11,1.24-.22,1.85-.33-.15,4.91,2.51,6.67,7.07,6.29-2.32,2.68-5.49,2.15-7.99,2.57,3.75,.48,7.55-2.26,11.75-1.9-.58,1.98-.64,3.51,2.21,3.32,1.77-.12,3.56,.09,5.34,.15-1.18,2.99-3.58,.94-5.38,1.31-3.24,.96-7.02-2.34-9.95,1.22Z"/>
        <path class="cls-23" d="M146.63,248.27c.03,8.03-.22,16.08,2.11,23.91-.55,.71-1.14,1.12-1.85,.18-.62-6.17-2.36-12.2-2.21-18.45,.05-1.92-.3-3.95,.96-5.69,.36-.43,.69-.44,.99,.06Z"/>
        <path class="cls-137" d="M165.68,302.34c3.25,6.44,9.38,9.77,14.92,13.73-1.46,2.24-2.62-.08-3.36-.56-5.08-3.26-9.87-6.92-13.72-11.65,.11-1.38,.99-1.66,2.16-1.53Z"/>
        <path class="cls-6" d="M104.01,310.25c-.04,.27-.09,.53-.15,.8-2.43,1.44-5.42-.64-7.79,1.23,0,.31-.09,.59-.27,.85-2.92-4.08-7.01-.34-10.35-1.55,6.07-2.15,12.34-1.34,18.56-1.33Z"/>
        <path class="cls-94" d="M130.65,308.23c-.83,1.54-4.05-.48-3.84,2.59-.46-.32-.91-.63-1.37-.95-3.03-.98-6.26,.43-9.26-.79,4.74-1.79,9.64-.83,14.48-.85Z"/>
        <path class="cls-35" d="M6.14,296.17c-2.07-1.58-3.92-3.31-4.11-6.15,2.66,1.19,4.61,2.85,4.11,6.15Z"/>
        <path class="cls-75" d="M158.46,304.22c1.07,1.63,2.14,3.26,3.5,5.35-3.59-.59-4.08-6.01-8.21-4.41,1.28-1.76,3.09-.84,4.7-.93Z"/>
        <path class="cls-36" d="M116.18,309.08c3.08,.32,6.31-.97,9.26,.79-3.27,0-6.53,0-9.8,0,.1-.32,.27-.58,.53-.79Z"/>
        <path class="cls-85" d="M110.87,332.02c2.92,.04,4.45,1.6,4.86,4.41-1.88-1.18-3.63-2.51-4.86-4.41Z"/>
        <path class="cls-61" d="M203.39,174.46c-.61,1-1.73,2-.87,3.24,.77,1.12,1.88,.66,3.06,.3,8.83-2.68,15.04-8.24,18.79-16.62q1.11-.68-.74-1.83c-2.83-1.39-5.38,.6-8.1,.7-2.4,.09-4.75,.39-6.25-1.89-1.65-2.51-1.12-5.21,.42-7.48,5.66-8.33,14.02-11.14,23.64-10.84,16.82,.53,26.93,18.8,19.33,36.45-.39,.91-.8,1.81-1.2,2.72-1.94,2.48-2.67,5.97-6.06,7.23-2.52,1.19-2.57-.72-2.9-2.29,.46-3.86,3.23-6.84,4.06-10.55,.46-2.03,1.15-4.06,.79-5.33-2.16,9-6.18,17.42-15.63,22.24-9.99,7.13-20.94,10.12-33.23,8.09-2.44-.4-4.13-1.69-6.04-2.83,.18-1.43,2.44-2.8,.14-4.31-.86-1.71-1.95-3.27-3.01-4.86-3.32-5.34-3.65-10.73-.3-16.19,.84-.3,1.33-1.59,2.52-.88,1.02,2.12-.13,4.17-.23,6.24-.72,2.57,2.26,2.83,2.87,4.56,.34,.74,.76,1.43,1.12,1.92-1.93-4.24-1.59-8.24,2.08-11.7,.17-.15,.37-.2,.6-.14,.89-.37,1.76-.61,2.53,.23,.48,.85,.91,1.58,2.12,1.76,1.22,.18,1.56,1.06,.49,2.04Z"/>
        <path class="cls-70" d="M303.36,134.62c-.35-4.94-2.98-9.03-5.03-13.39,13.39,.69,22.73,13.25,20.67,27.15-1.69,11.47-9.08,19.25-16.7,26.89-2.97,2.98-6.11,5.91-10.9,8.36,5.64-8.64,10.69-16.53,11.95-26.06,.78-7.65,.75-15.3,.01-22.95Z"/>
        <path class="cls-106" d="M274.94,218.52c-12.76,7.49-26.74,12.01-40.61,16.8-21.44,7.42-43.44,12.57-65.75,16.53-2.06,.37-4.14,.68-6.36,.14,1.71-1.23,3.59-1.56,5.45-1.97,6.19-3.42,13.24-3.84,19.91-5.42,15.58-3.69,30.99-7.89,46.03-13.39,2.2-.48,4.4-.98,6.63-1.19-.54-.38-1.6,.03-1.82-1.01,.64-3.93,5.19-3.76,6.92-4.2,8.95-2.24,16.88-6.63,25.23-10.14,.56-.24,1.33-.67,1.73-.47,.82,.41,.78,1.14,.3,2.05-1.71,3.22,1.4,1.67,2.35,2.28Z"/>
        <path class="cls-18" d="M162.77,180.65c-10.01,16.57-15.84,34.94-22.61,52.95-.88-10.45,4.25-19.39,6.78-28.95,.07-5.06,3.14-9,4.98-13.41,1.35-2.8,2.92-5.49,4.81-7.96-.03-.25-.05-.5-.06-.74,.39-2.32,1.98-4.04,3.01-6.04,.04-1.14-.17-2.51,.92-3.17,5.21-3.13,9.05-7.7,13.06-12.12,.38-.42,1.19-.45,1.8-.66,.34,.41,.53,.95,.25,1.36-4.2,6.33-7.93,12.98-12.94,18.75Z"/>
        <path class="cls-124" d="M198.5,146.57c-17.16,16.65-29.76,36.41-39.69,58-.94,.17-1.43-.12-1.16-1.16,2.58-8.46,6.84-16.13,11.16-23.77,.75-3.73,3.23-6.55,5.13-9.67,2.83-3.21,3.88-8.05,8.64-9.51,2.37,.75,3.1-1.34,3.77-2.62,2.42-4.64,7.09-7.09,10.26-10.97,.3-.37,1.24-.21,1.88-.3Z"/>
        <path class="cls-123" d="M234.47,232.24c-21.79,7.71-44.18,13.15-66.79,17.78,1.02-2.81-1.61-1.2-2.32-1.92-.03-.37,.13-.61,.48-.74,2.12,.1,4.23,.23,6.17-.91,18.33-2.57,35.95-7.93,53.45-13.72,2.34-.78,4.66-1.63,7-2.44,1.99-.71,2.83-.24,2.02,1.95Z"/>
        <path class="cls-138" d="M145.83,203.48c-.55,.59-1.11,1.7-1.64,1.68-1.21-.03-.67-1.16-.57-1.86,.61-4.08,2.72-7.61,4.2-11.38,.7-1.78,2.09-3.34,1.81-5.44,1.37-1.57,2.58-3.62,5.15-1.83,.6,2.89-1.7,4.72-2.58,7.07-2.19,3.89-3.28,8.36-6.37,11.77Z"/>
        <path class="cls-90" d="M162.77,180.65c3.01-7.47,8.54-13.35,12.69-20.11,2.77-2.85,5.14-6.14,9.38-9.12-.75,1.77-1.05,2.46-1.34,3.15-4.46,8.43-11.65,14.97-16.13,23.39-.53,1-1.33,1.87-1.69,2.98,.21,.93-.17,1.76-1.01,1.92-1.69,.32-.62-1.99-1.89-2.2Z"/>
        <path class="cls-12" d="M209.46,142.53c-1.27-.6-2.54-1.19-3.82-1.79,4.1-4.16,9.11-7,14.21-9.68,.91-.48,1.88-.71,2.56,.45-.93,2.28-3.43,2.08-4.78,3.4,1.41,.84,3.01-4.06,4.8-.3v-.02c-3.73,3.6-7.5,7.16-12.97,7.93Z"/>
        <path class="cls-128" d="M221.67,202.44c3.58-3.72,9.37-4.68,12-9.58,.16-1.11,.76-1.76,1.91-1.86,1.47,.16,2.98,.21,3.98,1.56-4.16,6.55-10.41,9.33-17.89,9.88Z"/>
        <path class="cls-73" d="M209.46,142.53c4.33-2.64,8.65-5.29,12.98-7.93,.77,.39,1.53,.77,2.3,1.16-7.12,4.43-14.62,8.31-20.83,14.09-1.15,.21-1.65-.24-1.44-1.42,1.62-2.82,4.52-4.11,7-5.9Z"/>
        <path class="cls-53" d="M165.67,180.94c1.81-8.07,7.64-13.71,12.25-20.07,1.64-2.26,3.7-4.21,5.57-6.3-.3,1.05-.59,2.1-.88,3.15-1.93,4.66-5.87,7.93-8.39,12.18-2.29,2.79-3.49,6.38-6.44,8.68-.7,.79-1.41,1.57-2.11,2.36Z"/>
        <path class="cls-110" d="M239.56,192.56c-1.39-.13-2.89,.3-4.1-.8,1.94-3.47,3.28-7.51,7.98-8.35,.07,1.39-.08,2.92,1.96,3.04,.11,1.27-.49,1.99-1.73,2.2-1.13,1.55-2.75,2.59-4.11,3.89v.02Z"/>
        <path class="cls-138" d="M159.68,176.5c.41,2.72-.93,4.56-3.01,6.04-1.71-.21-2.63-.73-2.19-2.88,.65-3.17,2.78-3.26,5.2-3.16Z"/>
        <path class="cls-59" d="M327.72,169.77c1.76-4.87,4.43-9.22,6.07-14.03,.05,5.55-2.53,10.05-6.07,14.03Z"/>
        <path class="cls-37" d="M173.63,169.51c3-3.93,5.99-7.87,8.98-11.8,1.91,.94-.02,1.84-.03,2.75-2.63,3.37-5.26,6.75-7.88,10.12-.6-.11-.96-.47-1.07-1.07Z"/>
        <path class="cls-31" d="M303.36,134.62c2.08,7.65,1.83,15.3-.01,22.95,0-7.65,0-15.3,.01-22.95Z"/>
        <path class="cls-64" d="M271.35,137.68c-2.18-1.82-4.91-2.52-7.33-4.03,3.61-.89,6.8-.29,9.27,2.96-.8,.07-1.56,.24-1.94,1.07Z"/>
        <path class="cls-141" d="M271.42,206.41c-4.01,2.02-8.02,4.04-12.03,6.05,3.21-3.93,7.65-5.47,12.01-7.14,.24,.24,.33,.48,.25,.72-.08,.24-.15,.37-.23,.37Z"/>
        <path class="cls-74" d="M164.45,242.98c-4.41,1.15-8.83,2.3-14.48,3.77,3.65-3.8,7.74-2.67,10.72-4.45,1.27,.12,2.66-.41,3.76,.67Z"/>
        <path class="cls-105" d="M234.47,232.24c.32-1.69-.85-1.82-2.02-1.95,1.74-1.59,4.01-.74,5.98-1.29,.93,.19,1.86,.38,3.15,.64-2.47,1.35-4.66,2.32-7.11,2.59Z"/>
        <path class="cls-73" d="M222.43,134.62c-2.88-1.71-4.66,2.12-8.31,1.52,3.28-1.83,5.79-3.23,8.29-4.62,.59,1.03,3.09,2.05,.02,3.1Z"/>
        <path class="cls-72" d="M239.58,192.54c.52-2.19,1.79-3.59,4.11-3.89,.75,3.53-1.53,3.87-4.11,3.89Z"/>
        <path class="cls-14" d="M151.77,191.54c1-2.3,2.01-4.59,3.01-6.89,.65-.46,1.3-.92,1.95-1.37-.53,3.12-2.14,5.72-3.99,8.21-.3,.47-.63,.47-.98,.05Z"/>
        <path class="cls-81" d="M271.42,206.41c0-.36-.01-.72-.02-1.09,1.71-1.63,3.77-2.43,6.13-2.55-1.86,1.53-3.64,3.17-6.11,3.64Z"/>
        <path class="cls-17" d="M336.06,139.83v8.65c-.19,0-.37,.02-.56,.02v-8.63c.19-.02,.37-.03,.56-.05Z"/>
        <path class="cls-89" d="M176.74,321.59c15.68,8.98,32.65,12.3,50.56,11.51-4.41,3.6-9.48,1.55-14.28,1.56-2.47,0-4.93-.44-7.4-.69-9.45-2.53-18.95-4.94-27.32-10.33-.68-.44-1.3-.97-1.94-1.45l-.05-.45,.43-.14Z"/>
        <path class="cls-32" d="M96.07,312.28c2.25-2.63,5.24-.52,7.79-1.23,.16,.03,.37,.02,.47,.11,.17,.17,.26,.4,.39,.61-2.88,.17-5.76,.34-8.64,.5Z"/>
        <path class="cls-58" d="M169.48,317.09c-2.88-.93-4.54-3.21-6.11-5.59,2.72,1.08,4.68,3.04,6.33,5.37l-.22,.23Z"/>
        <path class="cls-112" d="M169.71,316.86c2.66,1.11,5.09,2.56,7.04,4.73,.06,.32-.06,.51-.38,.59-2.74-1.09-5.13-2.67-6.88-5.1,0,0,.22-.23,.22-.23Z"/>
        <path class="cls-8" d="M237.41,28.06c-1.12,2.97-3.07,5.4-5.04,7.82-5.82,3.96-12.13,4.9-18.89,3.04-2.11-2.75-.69-4.68,1.34-6.69,2.5-2.46,5.79-3.35,8.75-4.89,4.62-.06,9.32-1.6,13.82,.72Z"/>
        <path class="cls-132" d="M393.99,83.65c1.67,.41,3.34,.82,5.01,1.23,2.1,4.94,.21,8.46-3.95,11.19-3.53-.89-5.58-3.49-6.06-6.75-.49-3.29,2.37-4.61,5-5.67Z"/>
        <path class="cls-33" d="M243.45,183.4c-2.66,2.78-5.32,5.57-7.98,8.35-.6,.37-1.19,.74-1.79,1.1-.14-1.2-.51-2.21-1.95-2.34,7.12-6.79,13.72-13.89,14.76-24.61,3.01,4.76,2.42,7.86-3.05,17.5Z"/>
        <path class="cls-91" d="M197.65,170.56c-1.84,4.89-4.73,9.87,1.66,14.16q-3.63-.69-5.72-4.25c-1.1-2.37-1.37-4.72,.12-7.02-1.34,1.08-.51,3.62-2.76,4.1-.11,.02-.28-.13-.39-.23-.23-.21-.22-.5,0-.84,.04-2.35,.43-4.64,1.29-6.84-.04-1.88,.33-3.4,2.75-3.09,.08,2.05,1.92,2.76,3.05,4.02Z"/>
        <path class="cls-30" d="M193.45,190.27c.09,2.26,2.4,2.82,3.45,4.33-1.13,2.03-3.51-1.28-4.45,1.17-5.86-2.92-9.67-7.23-9.79-15,1.91,3.03,3.4,5.38,4.89,7.74,1.82,1.08,3.65,2.1,5.9,1.76Z"/>
        <path class="cls-120" d="M146.63,248.27c-.33,0-.66-.02-.99-.06-.56-3.15,2.26-4.33,3.96-6.67-1.87-.12-4.77,2.99-4.88-1.39,2.09-1.76,4.5-2.92,7.05-3.82,.84,1.71-2.28,4.24,1.37,5.61,.92,.35-.83,1.14-1.58,1.51-2.15,1.08-4.53,1.93-4.93,4.81Z"/>
        <path class="cls-42" d="M200.63,171.56c-.53-.93-1.52-.91-2.38-1.14,3.56-4.34,7.56-7.78,14.47-7.03-2.46,3.73-7.06,3.25-9.29,6.16-.51,1.26-1.02,2.52-2.8,2Z"/>
        <path class="cls-114" d="M202.46,148.43c.48,.47,.96,.95,1.44,1.42-3.28,3.25-6.21,6.95-10.74,8.7,2.65-3.83,5.56-7.36,9.3-10.12Z"/>
        <path class="cls-136" d="M200.63,171.56c.93-.67,1.87-1.34,2.8-2,1.47,1.75,3.43-1.3,5.06,.83-.8,2.25-2.64,3.51-5.1,4.07,.06-1.05-.15-1.66-1.34-.9-.66,.42-1.53,1.24-2.08,.22-.26-.49,.4-1.47,.65-2.23Z"/>
        <path class="cls-48" d="M173.63,169.51c.36,.36,.72,.71,1.07,1.07-1.96,3.02-3.93,6.04-5.89,9.06-.34-.36-.69-.71-1.03-1.07,1.27-3.45,3.72-6.15,5.85-9.06Z"/>
        <path class="cls-26" d="M151.77,191.54c.32-.07,.65-.09,.98-.05-1.94,4.39-3.87,8.78-5.81,13.16-.37-.39-.73-.78-1.1-1.16,1.98-3.98,3.95-7.96,5.93-11.94Z"/>
        <path class="cls-41" d="M193.45,190.27c-3.63,4.98-3.99-.98-5.9-1.76,1.18-.09,1.97-.61,2.03-1.9,1.82,.67,2.77,2.24,3.87,3.67Z"/>
        <path class="cls-54" d="M194.6,166.54c-1.58,.44-1.7,2.17-2.75,3.09-.86,.26-1.71,.52-2.57,.79,.74-3.02,2.6-5.24,5.03-7.05,1.64-.15,1.99,.51,1.21,1.9-.31,.43-.62,.85-.92,1.28Z"/>
        <path class="cls-88" d="M195.53,165.26c-.02-.87-.39-1.53-1.21-1.9,1.36-1.29,2.39-3.22,5.17-2.55-.59,2.25-2.14,3.46-3.96,4.45Z"/>
        <path class="cls-9" d="M223.64,159.55c.5-.01,1-.09,1.49-.03,1.12,.14,2.43,0,3.03,1.28,.33,.7-.1,1.3-.71,1.63-1.36,.75-2.05-.67-3.07-1.04-.25-.61-.49-1.22-.74-1.83Z"/>
        <path class="cls-83" d="M157.65,203.41c.39,.39,.78,.77,1.16,1.16,.22,2.02-.9,3.29-2.6,4.88-.59-2.64,.09-4.41,1.43-6.03Z"/>
        <path class="cls-117" d="M165.83,247.36c-.19,.22-.35,.47-.48,.74-2.9,.3-5.79,.59-8.69,.89-1.48-2.47,.05-2.86,1.98-2.67,2.41,.23,4.79,.69,7.19,1.04Z"/>
        <path class="cls-54" d="M190.56,176.47c2.44-1.39,1.62-5.07,4.81-6.4-.79,3.6-2.37,6.86-1.79,10.4-.04-2.07-5.16-.29-3.02-4Z"/>
        <path class="cls-111" d="M199.66,193.11c4.92-1.31,10.03,.27,14.94-1.26-4.83,2.83-9.95,1.04-14.94,1.26Z"/>
      </g>
      <g>
        <ellipse class="cls-87" cx="226.52" cy="179.5" rx="221.48" ry="179.5"/>
        <path class="cls-87" d="M226.52,359h221.48V179.5c0,99.14-99.16,179.5-221.48,179.5Z"/>
        <path class="cls-87" d="M5.04,179.5C5.04,80.36,104.2,0,226.52,0H0V359H226.52c-122.32,0-221.48-80.36-221.48-179.5Z"/>
        <path class="cls-87" d="M226.52,0C348.84,0,448,80.36,448,179.5V0H226.52Z"/>
      </g>
    </g>
  </g>
</svg>